<svg
    width="16"
    height="16"
    viewBox="0 0 16 16"
    xmlns="http://www.w3.org/2000/svg"
>
  <rect width="100%" height="100%" fill="#000" class="sp-color-black" />
  <path
      fill="#E31010"
      class="sp-color-red-light"
      d="M0,5L5,0h6l2,2l2,1v1l1,1v5l-4,4h-8l-4,-4z"
  />
  <path
      fill="#B20000"
      class="sp-color-red-dark"
      d="M0,4h1v1h-1z M4,0h1v1h-1z M11,0h1v1h-1z M13,1h1v1h1v1h-1v-1h-1z M15,4h1v1h-1z M0,9h1v2h1v1h1v1h2v1h6v-1h2v-1h1v-1h1v-1h1v2h-1v1h-1v1h-1v1h-2v1h-6v-1h-2v-1h-1v-1h-1v-1h-1z M4,11h2v-1h5v2h2v-1h-6v1h-3z"
  />
  <path
      fill="#F39241"
      class="sp-color-orange"
      d="M1,3h1v-1h1v-1h1v1h-1v1h-1v1h-1zM11,1h2v1h1v1h-1v-1h-2z"
  />
  <path
      fill="#F3F3F3"
      class="sp-color-white"
      d="M4,4h1v1h-1z M12,4h1v1h-1z"
  />
  <path fill="#828282" class="sp-color-grey" d="M3,5h1v1h-1z M13,5h1v1h-1z"/>
  <path
      fill="#000000"
      class="sp-color-black"
      d="M4,5h1v1h-1z M12,5h1v1h-1z"
  />
</svg>
