<svg
    width="16"
    height="16"
    viewBox="0 0 16 16"
    xmlns="http://www.w3.org/2000/svg"
>
  <rect width="100%" height="100%" fill="#000" class="sp-color-black" />
  <path
      fill="#F3F3F3"
      class="sp-color-white"
      d="M0,0h1v1h-1z M0,2h1v1h-1z M0,4h1v1h-1z M0,6h1v1h-1z M0,8h1v1h-1z M0,10h1v1h-1z M0,12h1v1h-1z"
  />
  <path
      fill="#F39241"
      class="sp-color-orange"
      d="M2,15h1v1h-1z M4,15h1v1h-1z M6,15h1v1h-1z M8,15h1v1h-1z M10,15h1v1h-1z M12,15h1v1h-1z M15,1h1v1h-1z M15,3h1v1h-1z M15,5h1v1h-1z M15,7h1v1h-1z M15,9h1v1h-1z M15,11h1v1h-1z M15,13h1v1h-1z"
  />
  <path
      fill="#E3E300"
      class="sp-color-yellow"
      d="M1,0h1v1h-1z M1,2h1v1h-1z M1,4h1v1h-1z M1,6h1v1h-1z M1,8h1v1h-1z M1,10h1v1h-1z M1,12h1v1h-1z M2,14h1v1h-1z M4,14h1v1h-1z M6,14h1v1h-1z M8,14h1v1h-1z M10,14h1v1h-1z M12,14h1v1h-1z M14,1h1v1h-1z M14,3h1v1h-1z M14,5h1v1h-1z M14,7h1v1h-1z M14,9h1v1h-1z M14,11h1v1h-1z M14,13h1v1h-1z"
  />
  <path fill="#717171" class="sp-color-grey-dark" d="M2,0h12v14h-12z"/>
  <path
      fill="#616161"
      class="sp-color-grey-xdark"
      d="M7,6h2v2h-2z M13,0h1v14h-11v-1h10z"
  />
  <path
      fill="#828282"
      class="sp-color-grey"
      d="M8,7h1v1h-1z M2,0h1v13h-1z M7,1h1v1h-1v1h-1v-1h1z M9,2h1v1h-1z"
  />
</svg>
