<svg
    width="16"
    height="16"
    viewBox="0 0 16 16"
    xmlns="http://www.w3.org/2000/svg"
>
  <rect width="100%" height="100%" fill="#000"/>
  <path fill="#824100" d="M2,7h12v2h-12z"/>
  <path fill="#B20000" d="M3,7h10v2h-10z"/>
  <path fill="#E31010" d="M4,7h8v2h-8z"/>
  <path fill="#F39241" d="M5,7h6v2h-6z"/>
  <path fill="#E3E300" d="M7,7h2v2h-2z"/>
  <path fill="#616161" d="M0,7v-2h1v-2h1v-1h1v-1h2v-1h6v1h2v1h1v1h1v2h1v2z m0,2h16v2h-1v2v-1v1h-1v1h-1v1h-2v1h-6v-1h-2v-1h-1v-1h-1v-2h-1z"/>
  <path fill="#717171" d="M1,7v-3h1v-1h1v-1h1v-1h7v1h1v1h1v1h1v3z m0,2h13v2h-1v1h-1v1h-1v1h-7v-1h-1v-1h-1v-1h-1z"/>
  <path fill="#828282" d="M2,7v-3h1v-1h1v-1h6v1h1v1h1v3z m1,2h8v2h-1v1h-6v-1h-1z"/>
  <path fill="#929292" d="M3,7v-3h1v-1h5v1h1v3z"/>
  <path fill="#B2B2B2" d="M4,5h1v1h1v-1h-1v-1h1v1h1v-1h1v1h-1v1h1v-1h1v1h-1v1h-1v-1h-1v1h-1v-1h-1z"/>
</svg>
