<svg
    width="16"
    height="16"
    viewBox="0 0 16 16"
    xmlns="http://www.w3.org/2000/svg"
>
  <rect width="100%" height="100%" fill="#000" class="sp-color-black" />
  <path
      fill="#008251"
      class="sp-color-green-dark"
      d="M4,2h1v-1h1v-1h2v1h-2v1h-1v4h1v1h-1v-1h-1z M10,0h1v1h1v1h-1v-1h-1z M11,6h1v1h-1z"
  />
  <path
      fill="#00B261"
      class="sp-color-green-light"
      d="M8,0h2v1h1v1h1v4h-1v-4h-1v-1h-2z"
  />
  <path
      fill="#5151D3"
      class="sp-color-blue-dark"
      d="M10,6h1v1h-1z M4,15h1v-1h1v-1h1v-1h1v1h-1v1h-1v1h-1v1h-1z"
  />
  <path
      fill="#7192E3"
      class="sp-color-blue-light"
      d="M8,10h1v-1h1v1h-1v2h-1z M10,7h1v1h-1z"
  />
  <path fill="#E3E300" class="sp-color-yellow" d="M3,8h3v1h-3z"/>
  <path fill="#F39241" class="sp-color-orange" d="M6,8h5v1h-5z"/>
  <path
      fill="#E31010"
      class="sp-color-red-light"
      d="M11,8h3v1h1v1h1v3h-1v-3h-1v-1h-3z M14,14h1v1h-1z"
  />
  <path
      fill="#B20000"
      class="sp-color-red-dark"
      d="M8,12h1v1h1v2h4v1h-4v-1h-1v-2h-1z M15,13h1v1h-1z"
  />
  <path
      fill="#824100"
      class="sp-color-brown"
      d="M5,7h1v1h-1z M6,9h1v1h1v2h-1v-2h-1z M15,14h1v1h-1z"
  />

  <path
      fill="#F3F3F3"
      class="sp-color-white"
      d="M0,10h1v-1h1v1h-1v1h-1z M3,11h1v1h-1z M11,11h1v1h-1z M7,3h1v1h-1z"
  />
  <path
      fill="#B2B2B2"
      class="sp-color-grey-xlight"
      d="M2,8h1v1h-1z M0,11h1v2h-1z"
  />
  <path
      fill="#929292"
      class="sp-color-grey-light"
      d="M0,13h1v1h1v1h-1v-1h-1z"
  />
  <path
      fill="#828282"
      class="sp-color-grey"
      d="M3,12h1v-1h1v1h-1v1h-1z M11,12h1v-1h1v1h-1v1h-1z M7,4h1v-1h1v1h-1v1h-1z"
  />
  <path
      fill="#717171"
      class="sp-color-grey-dark"
      d="M0,9h1v-1h1v1h-1v1h-1z"
  />
  <path
      fill="#616161"
      class="sp-color-grey-xdark"
      d="M5,2h1v-1h1v1h-1v1h-1z M2,15h2v1h-2z M5,15h1v-1h1v1h-1v1h-1z M4,12h1v1h-1z M12,12h1v1h-1z M8,4h1v1h-1z"
  />
</svg>
