<svg
    width="16"
    height="16"
    viewBox="0 0 16 16"
    xmlns="http://www.w3.org/2000/svg"
>
  <rect width="100%" height="100%" fill="#000" class="sp-color-black" />
  <path
      fill="#616161"
      class="sp-color-grey-xdark"
      d="M0,0h16v1h-1v1h-1v9h1v2h1v3h-16v-3h1v-2h1v-9h-1v-1h-1z"
  />
  <path
      fill="#717171"
      class="sp-color-grey-dark"
      d="M1,0h11v1h-1v12h1v3h-11v-3h1v-2h1v-1l-1,-8v-1h-1z"
  />
  <path fill="#828282" class="sp-color-grey" d="M3,11v-1h5v2h1v4h-2z"/>
  <path
      fill="#929292"
      class="sp-color-grey-light"
      d="M2,0h5v16h-5v-3h1v-2h1v-1l-1,-8v-1h-1z"
  />
  <path
      fill="#B2B2B2"
      class="sp-color-grey-xlight"
      d="M3,0h2v11h1v1h-1v1h1v1h-1v1h1v1h-3v-3h1v-12h-1z"
  />

  <path fill="#B20000" class="sp-color-red-dark" d="M2,2zh12v8h-12z"/>
  <path
      fill="#E31010"
      class="sp-color-red-light"
      d="M3,3h5v1h-5z M3,5h5v1h-5z M3,7h5v1h-5z M3,9h5v1h-5z M4,2h1v8h-1z"
  />
  <path
      fill="#F39241"
      class="sp-color-orange"
      d="M4,3h2v1h-2z M4,5h2v1h-2z M4,7h2v1h-2z M4,9h2v1h-2z"
  />
  <path
      fill="#824100"
      class="sp-color-brown"
      d="M2,2h1v1h-1z M2,4h1v1h-1z M2,6h1v1h-1z M2,8h1v1h-1z M10,2h4v1h-4z M10,4h4v1h-4z M10,6h4v1h-4z M10,8h4v1h-4z"
  />
</svg>
