<svg
    width="16"
    height="16"
    viewBox="0 0 16 16"
    xmlns="http://www.w3.org/2000/svg"
>
  <rect width="100%" height="100%" fill="#000"/>
  <path fill="#616161" d="M0,0h3v1h2v1h9v-1h1v-1h1v16h-1v-1h-1v-1h-9v1h-2v1h-3z"/>
  <path fill="#717171" d="M0,1h3v1h2v1h9v-1h1v-1h1v11h-1v-1h-12v1h-3z"/>
  <path fill="#828282" d="M5,3h1v5h-2v1h-4v-2z"/>
  <path fill="#929292" d="M0,2h3v1h2v1h1l8,-1h1v-1h1v5h-16z"/>
  <path fill="#B2B2B2" d="M0,3h3v1h12v-1h1v2h-11v1h-1v-1h-1v1h-1v-1h-1v1h-1z"/>

  <path fill="#5151D3" d="M6,2h8v12h-8z"/>
  <path fill="#7192E3" d="M6,3h1v5h-1z M8,3h1v5h-1z M10,3h1v5h-1z M12,3h1v5h-1z M6,4h8v1h-8z"/>
  <path fill="#92B2F3" d="M6,4h1v2h-1z M8,4h1v2h-1z M10,4h1v2h-1z M12,4h1v2h-1z"/>
  <path fill="#004161" d="M7,2h1v1h-1z M9,2h1v1h-1z M11,2h1v1h-1z M13,2h1v1h-1z M7,10h1v4h-1z M9,10h1v4h-1z M11,10h1v4h-1z M13,10h1v4h-1z"/>
</svg>
