<svg
    width="16"
    height="16"
    viewBox="0 0 16 16"
    xmlns="http://www.w3.org/2000/svg"
>
  <rect width="100%" height="100%" fill="#000"/>
  <path fill="#F3F3F3" d="M1,0h1v1h-1z M3,0h1v1h-1z M5,0h1v1h-1z M7,0h1v1h-1z M9,0h1v1h-1z M11,0h1v1h-1z M13,0h1v1h-1z M15,0h1v1h-1z"/>
  <path fill="#F39241" d="M1,15h1v1h-1z M3,15h1v1h-1z M5,15h1v1h-1z M7,15h1v1h-1z M9,15h1v1h-1z M11,15h1v1h-1z M13,15h1v1h-1z M15,15h1v1h-1z"/>
  <path fill="#E3E300" d="M1,1h1v14h-1z M3,1h1v14h-1z M5,1h1v14h-1z M7,1h1v14h-1z M9,1h1v14h-1z M11,1h1v14h-1z M13,1h1v14h-1z M15,1h1v14h-1z"/>
  <path fill="#717171" d="M0,2h16v12h-16z"/>
  <path fill="#616161" d="M0,6h3v1h1v1h-1v-1h-3z M6,7h2v2h-2z M0,13h16v1h-16z"/>
  <path fill="#828282" d="M0,2h16v1h-15v3h-1z M0,9h2v1h-1v2h-1 M7,8h1v1h-1z M12,7h1v-1h1v1h1v1h-1v-1h-1v1h-1z M12,9h3v1h-3z"/>
</svg>
