<svg
    width="16"
    height="16"
    viewBox="0 0 16 16"
    xmlns="http://www.w3.org/2000/svg"
>
  <rect width="100%" height="100%" fill="#000" class="sp-color-black" />
  <path
      fill="#F3F3F3"
      class="sp-color-white"
      d="M3,0h1v1h-1z M5,0h1v1h-1z M7,0h1v1h-1z M9,0h1v1h-1z M11,0h1v1h-1z M13,0h1v1h-1z M0,2h1v1h-1z M0,4h1v1h-1z M0,6h1v1h-1z M0,8h1v1h-1z M0,10h1v1h-1z M0,12h1v1h-1z M0,14h1v1h-1z"
  />
  <path
      fill="#F39241"
      class="sp-color-orange"
      d="M15,3h1v1h-1z M15,5h1v1h-1z M15,7h1v1h-1z M15,9h1v1h-1z M15,11h1v1h-1z M15,13h1v1h-1z M15,15h1v1h-1z"
  />
  <path
      fill="#E3E300"
      class="sp-color-yellow"
      d="M3,1h1v1h-1z M5,1h1v1h-1z M7,1h1v1h-1z M9,1h1v1h-1z M11,1h1v1h-1z M13,1h1v1h-1z M1,2h1v1h-1z M1,4h1v1h-1z M1,6h1v1h-1z M1,8h1v1h-1z M1,10h1v1h-1z M1,12h1v1h-1z M1,14h1v1h-1z M14,3h1v1h-1z M14,5h1v1h-1z M14,7h1v1h-1z M14,9h1v1h-1z M14,11h1v1h-1z M14,13h1v1h-1z M14,15h1v1h-1z"
  />
  <path fill="#717171" class="sp-color-grey-dark" d="M2,2h12v14h-12z"/>
  <path
      fill="#616161"
      class="sp-color-grey-xdark"
      d="M7,8h2v2h-2z M6,2h1v3h1v1h-1v-1h-1z M13,2h1v14h-1z"
  />
  <path
      fill="#828282"
      class="sp-color-grey"
      d="M8,9h1v1h-1z M2,2h4v1h-3v13h-1z M9,2h3v1h-2v1h-1z M7,13h1v1h-1v1h1v1h-1v-1h-1v-1h1z M9,13h1v3h-1z"
  />
</svg>
