<svg
    width="16"
    height="16"
    viewBox="0 0 16 16"
    xmlns="http://www.w3.org/2000/svg"
>
  <rect width="100%" height="100%" fill="#000"/>
  <path fill="#616161" d="M2,0h12v1h-1v1h-1v2h2v-1h1v-1h1v12h-1v-1h-1v-1h-2v2h1v1h1v1h-12v-1h1v-1h1v-2h-2v1h-1v1h-1v-12h1v1h1v1h2v-2h-1v-1h-1z"/>
  <path fill="#717171" d="M0,3h1v1h-1z M3,0h1v1h-1z M0,8h16v3h-1v-1h-14v1h-1z M8,0h3v1h-1v14h1v1h-3z"/>
  <path fill="#828282" d="M4,0h4v16h-4z M0,4h16v4h-16z"/>
  <path fill="#929292" d="M4,0h1v1h-1z M0,4h1v1h-1z M4,15h1v1h-1z M15,4h1v1h-1z"/>
  <path fill="#B2B2B2" d="M5,0h1v16h-1z M0,5h16v1h-16z"/>

  <path fill="#B20000" d="M4,2h4v6l4,-4h2v4h-6v6h-4v-2l4,-4h-6v-4h2z"/>
  <path fill="#E31010" d="M6,2h1v6h-1z M7,9v5h-1v-4z M2,6h6v1h-6z M10,6h4v1h-5z M5,3h3v1h-3z M7,9h1v1h-2z M5,11h3v1h-3z M5,13h3v1h-3z M2,5h1v3h-1z M4,5h1v3h-1z M9,7v1h-1z M11,5v3h-1v-2z M12,5h1v3h-1z"/>
  <path fill="#F39241" d="M6,3h1v1h-1z M6,5h1v1h-1z M6,7h1v1h-1z M7,9v1h-1z M6,11h1v1h-1z M6,13h1v1h-1z M2,6h1v1h-1z M4,6h1v1h-1z M10,6h1v1h-1z M12,6h1v1h-1z"/>
  <path fill="#824100" d="M4,2h1v1h-1z M3,4h1v1h-1z M13,4h1v1h-1z M12,4v1h-1z M5,11v2h-1v-1z "/>

  <path fill="#5151D3" d="M8,2h4v2l-4,4z M8,8h6v4h-2v2h-4z M2,8h6l-4,4h-2z"/>
  <path fill="#7192E3" d="M6,8h1v1l-1,1z M8,6h2l-1,1h-1 M8,3h1v1h-1z M8,9h1v1h-1z M8,11h1v1h-1z M8,13h1v1h-1z M2,8h1v1h-1z M4,8h1v1h-1z M8,5h1v2l-1,1z M8,8h1v1h-1z M10,5h1l-1,1z M10,8h1v1h-1z M12,8h1v1h-1z"/>
  <path fill="#92B2F3" d="M6,9h1l-1,1z M8,6h1v1h-1z"/>
  <path fill="#004161" d="M9,5h1v1h-1z M5,9h1v1h-1z M9,2h3v2l-1,1v-2h-2z M3,9h1v2h1l-1,1h-1z M11,9h1v4h-2v-1h1v-1h-1v-1h1z M13,9h1v3h-1z"/>
</svg>
