<svg
    width="16"
    height="16"
    viewBox="0 0 16 16"
    xmlns="http://www.w3.org/2000/svg"
>
  <rect width="100%" height="100%" fill="#000"/>
  <path fill="#616161" d="M0,0h1v1h1v1h9v-1h2v-1h3v16h-3v-1h-2v-1h-9v1h-1v1h-1z"/>
  <path fill="#717171" d="M0,1h1v1h1l8,1h1v-1h2v-1h3v11h-3v-1h-12v1h-1z"/>
  <path fill="#828282" d="M10,3h1l5,4v2h-4v-1h-2z"/>
  <path fill="#929292" d="M0,2h1v1h1l8,1h1v-1h2v-1h3v5h-16z"/>
  <path fill="#B2B2B2" d="M0,3h1v1h12v-1h3v3h-1v-1h-1v1h-1v-1h-1v1h-1v-1h-1v1h-1v-1h-11z"/>

  <path fill="#B20000" d="M2,2h8v6h-8z"/>
  <path fill="#E31010" d="M3,3h1v5h-1z M5,3h1v5h-1z M7,3h1v5h-1z M9,3h1v5h-1z M2,4h8v1h-8z"/>
  <path fill="#F39241" d="M3,4h1v2h-1z M5,4h1v2h-1z M7,4h1v2h-1z M9,4h1v2h-1z"/>
  <path fill="#824100" d="M2,2h1v1h-1z M4,2h1v1h-1z M6,2h1v1h-1z M8,2h1v1h-1z"/>

  <path fill="#5151D3" d="M2,8h8v6h-8z"/>
  <path fill="#004161" d="M2,10h1v4h-1z M4,10h1v4h-1z M6,10h1v4h-1z M8,10h1v4h-1z"/>
</svg>
