<svg
    width="16"
    height="16"
    viewBox="0 0 16 16"
    xmlns="http://www.w3.org/2000/svg"
>
  <rect width="100%" height="100%" fill="#000"/>
  <path fill="#616161" d="M0,0h16v1h-1v1h-1v9h1v2h1v3h-16v-3h1v-2h1v-9h-1v-1h-1z"/>
  <path fill="#717171" d="M1,0h11v1h-1v12h1v3h-11v-3h1v-2h1v-1l-1,-8v-1h-1z"/>
  <path fill="#828282" d="M3,11v-1h5v2h1v4h-2z"/>
  <path fill="#929292" d="M2,0h5v16h-5v-3h1v-2h1v-1l-1,-8v-1h-1z"/>
  <path fill="#B2B2B2" d="M3,0h2v11h1v1h-1v1h1v1h-1v1h1v1h-3v-3h1v-12h-1z"/>

  <path fill="#B20000" d="M2,2zh6v8h-6z"/>
  <path fill="#E31010" d="M3,3h5v1h-5z M3,5h5v1h-5z M3,7h5v1h-5z M3,9h5v1h-5z M4,2h1v8h-1z"/>
  <path fill="#F39241" d="M4,3h2v1h-2z M4,5h2v1h-2z M4,7h2v1h-2z M4,9h2v1h-2z"/>
  <path fill="#824100" d="M2,2h1v1h-1z M2,4h1v1h-1z M2,6h1v1h-1z M2,8h1v1h-1z"/>

  <path fill="#5151D3" d="M8,2zh6v8h-6z"/>
  <path fill="#004161" d="M10,2h4v1h-4z M10,4h4v1h-4z M10,6h4v1h-4z M10,8h4v1h-4z"/>
</svg>
