<svg
    width="24"
    height="24"
    viewBox="0 0 24 24"
    xmlns="http://www.w3.org/2000/svg"
>
  <rect width="100%" height="100%" fill="#000" class="sp-color-black" />
  <path
      fill="#E31010"
      class="sp-color-red-light"
      d="M3,8L8,3h6l2,2l2,1v1l1,1v5l-4,4h-8l-4,-4z"
  />
  <path
      fill="#B20000"
      class="sp-color-red-dark"
      d="M3,7h1v1h-1z M7,3h1v1h-1z M14,3h1v1h-1z M16,4h1v1h1v1h-1v-1h-1z M18,7h1v1h-1z M3,12h1v2h1v1h1v1h2v1h6v-1h2v-1h1v-1h1v-1h1v2h-1v1h-1v1h-1v1h-2v1h-6v-1h-2v-1h-1v-1h-1v-1h-1z M5,12h2v2h-1v-1h-1z M8,13h1v2h5v-2h1v2h-1v1h-5v-1h-1z M16,12h2v1h-1v1h-1z"
  />
  <path
      fill="#F39241"
      class="sp-color-orange"
      d="M4,6h1v-1h1v-1h1v1h-1v1h-1v1h-1zM14,4h2v1h1v1h-1v-1h-2z"
  />
  <path
      fill="#824100"
      class="sp-color-brown"
      d="M5,11h1v1h-1z M7,13h1v1h-1z M9,14h5v1h-5z M15,13h1v1h-1z M17,11h1v1h-1z"
  />
  <path
      fill="#F3F3F3"
      class="sp-color-white"
      d="M7,7h1v1h-1z M15,7h1v1h-1z"
  />
  <path fill="#828282" class="sp-color-grey" d="M6,8h1v1h-1z M16,8h1v1h-1z"/>
  <path
      fill="#000000"
      class="sp-color-black"
      d="M7,8h1v1h-1z M15,8h1v1h-1z"
  />
  <path
      fill="#fff"
      class="sp-color-white"
      d="M1,1h4v1h-3v3h-1z M7,1h4v1h-4z M13,1h4v1h-4z M19,1h4v4h-1v-3h-3z M22,7h1v4h-1z M1,7h1v4h-1z M22,13h1v4h-1z M1,13h1v4h-1z M1,19h1v3h3v1h-4z M7,22h4v1h-4z M13,22h4v1h-4z M22,19h1v4h-4v-1h3z"
  />
</svg>
